<svg width="158" height="40" viewBox="0 0 158 40" fill="none" xmlns="http://www.w3.org/2000/svg">
<mask id="mask0_500_10690" style="mask-type:luminance" maskUnits="userSpaceOnUse" x="19" y="0" width="18" height="22">
<path d="M19.9077 8.79832V21.7858L36.959 12.6724V0L19.9077 8.79832Z" fill="white"/>
</mask>
<g mask="url(#mask0_500_10690)">
<path d="M10.5525 5.07422L32.9928 -7.08431L46.3164 16.7201L23.8761 28.8786L10.5525 5.07422Z" fill="url(#paint0_linear_500_10690)"/>
</g>
<mask id="mask1_500_10690" style="mask-type:luminance" maskUnits="userSpaceOnUse" x="19" y="7" width="13" height="30">
<path d="M19.9067 36.945L31.5929 30.8456V13.8953L19.9067 7.91602V36.945Z" fill="white"/>
</mask>
<g mask="url(#mask1_500_10690)">
<path d="M18.6306 36.8857L19.9409 7.42411L32.8664 7.96406L31.5561 37.4257L18.6306 36.8857Z" fill="url(#paint1_linear_500_10690)"/>
</g>
<mask id="mask2_500_10690" style="mask-type:luminance" maskUnits="userSpaceOnUse" x="5" y="22" width="24" height="17">
<path d="M5.39526 32.8427L16.6438 38.642L28.8028 32.3176L26.4701 22.1592L5.39526 32.8427Z" fill="white"/>
</mask>
<g mask="url(#mask2_500_10690)">
<path d="M-1.49878 25.7217L23.7434 12.6829L35.6967 35.0837L10.4546 48.1225L-1.49878 25.7217Z" fill="url(#paint2_linear_500_10690)"/>
</g>
<mask id="mask3_500_10690" style="mask-type:luminance" maskUnits="userSpaceOnUse" x="0" y="0" width="12" height="37">
<path d="M0 0V30.2303L11.8387 36.1621V0H0Z" fill="white"/>
</mask>
<g mask="url(#mask3_500_10690)">
<path d="M11.8343 0H-0.00439453V36.1609H11.8343V0Z" fill="url(#paint3_linear_500_10690)"/>
</g>
<mask id="mask4_500_10690" style="mask-type:luminance" maskUnits="userSpaceOnUse" x="19" y="18" width="18" height="22">
<path d="M19.9067 30.8863L36.958 39.9997V27.3172L19.9067 18.2139V30.8863Z" fill="white"/>
</mask>
<g mask="url(#mask4_500_10690)">
<path d="M11.3606 22.1768L33.8471 11.7264L45.5045 36.0076L23.0179 46.4579L11.3606 22.1768Z" fill="url(#paint4_linear_500_10690)"/>
</g>
<mask id="mask5_500_10690" style="mask-type:luminance" maskUnits="userSpaceOnUse" x="36" y="18" width="18" height="22">
<path d="M36.9285 27.3179V40.0003L53.9798 31.192V18.5195L36.9285 27.3179Z" fill="white"/>
</mask>
<g mask="url(#mask5_500_10690)">
<path d="M27.8206 23.332L50.1546 11.5151L63.0872 35.1757L40.7531 46.9926L27.8206 23.332Z" fill="url(#paint5_linear_500_10690)"/>
</g>
<mask id="mask6_500_10690" style="mask-type:luminance" maskUnits="userSpaceOnUse" x="0" y="0" width="32" height="21">
<path d="M0 0L31.5934 20.1006V5.76429L20.283 0H0Z" fill="white"/>
</mask>
<g mask="url(#mask6_500_10690)">
<path d="M-10.158 11.1533L14.0591 -15.4487L41.7445 8.9482L17.5275 35.5503L-10.158 11.1533Z" fill="url(#paint6_linear_500_10690)"/>
</g>
<mask id="mask7_500_10690" style="mask-type:luminance" maskUnits="userSpaceOnUse" x="42" y="2" width="12" height="36">
<path d="M42.1614 37.2414L54.0001 31.3659V8.61376L42.1614 2.68945V37.2414Z" fill="white"/>
</mask>
<g mask="url(#mask7_500_10690)">
<path d="M41.3105 2.71387L54.0094 2.42048L54.8785 37.2269L42.1797 37.5202L41.3105 2.71387Z" fill="url(#paint7_linear_500_10690)"/>
</g>
<mask id="mask8_500_10690" style="mask-type:luminance" maskUnits="userSpaceOnUse" x="36" y="0" width="18" height="22">
<path d="M36.9094 12.6724L53.9607 21.4808V8.79832L36.9094 0V12.6724Z" fill="white"/>
</mask>
<g mask="url(#mask8_500_10690)">
<path d="M27.2966 15.8389L41.3876 -7.38141L63.5664 5.64697L49.4754 28.8672L27.2966 15.8389Z" fill="url(#paint8_linear_500_10690)"/>
</g>
<path d="M67.4633 8.6885H74.7896C76.4708 8.66384 78.1474 8.86955 79.7715 9.29976C81.137 9.66093 82.4011 10.3256 83.4675 11.2431C84.5139 12.1871 85.3023 13.3773 85.7594 14.703C86.3169 16.3639 86.5812 18.1073 86.5409 19.8568C86.5929 21.8226 86.2638 23.78 85.5713 25.6233C84.9842 26.9565 84.0696 28.1235 82.9105 29.0184C81.7202 29.9026 80.3552 30.5293 78.904 30.8579C77.2688 31.2328 75.5948 31.4166 73.9163 31.4057H67.4517L67.4633 8.6885ZM72.2921 12.4757V27.6719H73.7253C74.8592 27.6851 75.9902 27.5572 77.0918 27.2913C78.0286 27.0695 78.8961 26.624 79.6184 25.9938C80.3373 25.4301 80.8859 24.6821 81.2047 23.8314C81.6179 22.4176 81.8145 20.9505 81.7879 19.4791C81.876 18.4805 81.7538 17.4747 81.4291 16.5251C81.1044 15.5756 80.5842 14.7028 79.9013 13.962C78.4306 12.8236 76.5723 12.2906 74.7138 12.4742L72.2921 12.4757Z" fill="#4E4D4D"/>
<path d="M92.7377 23.8087C92.7039 24.7135 92.9191 25.6103 93.3603 26.4037C93.7559 26.8965 94.2741 27.2794 94.8641 27.5149C95.4542 27.7504 96.096 27.8305 96.7268 27.7473C97.2793 27.7525 97.8314 27.712 98.3772 27.6262C98.8207 27.5519 99.2589 27.4498 99.6893 27.3206C100.065 27.2053 100.434 27.0686 100.794 26.9111C101.136 26.7554 101.475 26.6055 101.805 26.4671L102.662 29.1875C102.283 29.4045 101.891 29.5971 101.487 29.7641C100.963 29.9833 100.423 30.1626 99.8716 30.3004C99.242 30.4614 98.6046 30.5904 97.9617 30.6868C97.3179 30.7829 96.6678 30.8311 96.0167 30.8309C93.1261 30.8309 91.0893 30.1486 89.9064 28.7838C88.598 27.0189 87.9726 24.8487 88.1437 22.667C88.1437 17.3473 90.7403 14.6861 95.9336 14.6832C97.1358 14.6416 98.3344 14.8376 99.459 15.2599C100.296 15.5894 101.028 16.1374 101.574 16.8457C102.096 17.5529 102.452 18.3666 102.614 19.2272C102.809 20.2247 102.903 21.2388 102.895 22.2547V23.8116L92.7377 23.8087ZM98.278 20.9673C98.3279 20.0834 98.1392 19.2022 97.7313 18.4142C97.5361 18.1104 97.2604 17.8654 96.9342 17.7057C96.608 17.5461 96.2438 17.478 95.8811 17.5088C95.4843 17.4564 95.0806 17.4909 94.6988 17.6097C94.3169 17.7286 93.9661 17.9291 93.6712 18.1968C93.3763 18.4646 93.1446 18.7932 92.9923 19.1594C92.8401 19.5255 92.7711 19.9202 92.7902 20.3157C92.772 20.4185 92.7622 20.5227 92.7611 20.6271V20.9615L98.278 20.9673Z" fill="#4E4D4D"/>
<path d="M103.539 15.0566H108.034L111.365 27.2327H111.712L115.202 15.0566H119.444L114.326 30.4662H108.494L103.539 15.0566Z" fill="#4E4D4D"/>
<path d="M131.171 8.62514C132.793 8.58053 134.407 8.85698 135.918 9.43822C137.154 9.9418 138.235 10.7546 139.056 11.7967C139.887 12.9019 140.475 14.1662 140.784 15.5089C141.163 17.1245 141.345 18.7794 141.325 20.4379C141.325 24.3312 140.427 27.2462 138.633 29.1828C136.839 31.1194 134.085 32.0805 130.372 32.0661C128.92 32.1178 127.476 31.8334 126.154 31.2357C124.917 30.7281 123.838 29.9041 123.028 28.8483C122.211 27.7324 121.637 26.4603 121.343 25.1131C120.985 23.5003 120.813 21.8525 120.831 20.2014C120.831 16.2889 121.718 13.3739 123.492 11.4565C125.255 9.54202 127.452 8.57324 131.171 8.57324M131.2 12.0332C130.378 12.0041 129.564 12.2039 128.85 12.6098C128.064 12.9746 127.396 13.5499 126.923 14.2706C126.399 15.0899 126.042 16.0021 125.872 16.9563C125.645 18.1517 125.537 19.366 125.548 20.582C125.544 21.6134 125.63 22.6432 125.806 23.6599C125.95 24.5421 126.24 25.3949 126.663 26.1842C127.043 26.8915 127.604 27.4879 128.29 27.9142C128.855 28.3567 129.563 28.5803 130.282 28.5427C131.315 28.5725 132.342 28.3756 133.29 27.9661C134.069 27.6031 134.731 27.0319 135.2 26.3168C135.711 25.5022 136.052 24.5951 136.204 23.6484C136.407 22.4408 136.505 21.218 136.496 19.9938C136.499 18.9727 136.418 17.9531 136.255 16.9448C136.123 16.0612 135.837 15.2071 135.41 14.4205C135.025 13.7182 134.467 13.1232 133.788 12.6905C133.009 12.2497 132.118 12.0377 131.221 12.0793" fill="#4E4D4D"/>
<path d="M143.189 15.0664H147.366L147.46 16.139C147.995 15.7946 148.571 15.5176 149.176 15.3143C150.267 14.9315 151.413 14.7232 152.571 14.6973C153.425 14.6724 154.275 14.8034 155.08 15.0837C155.686 15.3053 156.227 15.6718 156.655 16.1505C157.065 16.6429 157.347 17.2268 157.477 17.8516C157.641 18.5843 157.72 19.333 157.712 20.0833V30.463H153.259V21.0275C153.268 20.6559 153.252 20.2842 153.213 19.9146C153.187 19.5892 153.097 19.2719 152.949 18.9804C152.797 18.7087 152.568 18.4864 152.291 18.3403C151.928 18.1592 151.523 18.0738 151.116 18.0924C150.48 18.0785 149.847 18.1721 149.243 18.3692C148.799 18.5434 148.372 18.7577 147.968 19.0092V30.476H143.51V19.1938L143.189 15.0664Z" fill="#4E4D4D"/>
<defs>
<linearGradient id="paint0_linear_500_10690" x1="17.6618" y1="16.872" x2="42.9085" y2="3.45302" gradientUnits="userSpaceOnUse">
<stop stop-color="#75308E"/>
<stop offset="1" stop-color="#632A72"/>
</linearGradient>
<linearGradient id="paint1_linear_500_10690" x1="25.7428" y1="1.54976" x2="30.5157" y2="27.3307" gradientUnits="userSpaceOnUse">
<stop stop-color="#721D4D"/>
<stop offset="0.54" stop-color="#981B44"/>
<stop offset="1" stop-color="#B51A3E"/>
</linearGradient>
<linearGradient id="paint2_linear_500_10690" x1="24.217" y1="25.52" x2="0.045542" y2="40.0838" gradientUnits="userSpaceOnUse">
<stop stop-color="#E84060"/>
<stop offset="0.46" stop-color="#D12F51"/>
<stop offset="1" stop-color="#B51A3E"/>
</linearGradient>
<linearGradient id="paint3_linear_500_10690" x1="4.99153" y1="26.2528" x2="4.99153" y2="-4.05002" gradientUnits="userSpaceOnUse">
<stop stop-color="#E84060"/>
<stop offset="0.309" stop-color="#D12F51"/>
<stop offset="1" stop-color="#B51A3E"/>
</linearGradient>
<linearGradient id="paint4_linear_500_10690" x1="-3.11157" y1="42.5224" x2="35.9591" y2="24.746" gradientUnits="userSpaceOnUse">
<stop stop-color="#75308E"/>
<stop offset="1" stop-color="#8F4094"/>
</linearGradient>
<linearGradient id="paint5_linear_500_10690" x1="56.4766" y1="23.2543" x2="41.4831" y2="31.8736" gradientUnits="userSpaceOnUse">
<stop stop-color="#75308E"/>
<stop offset="1" stop-color="#75308E"/>
</linearGradient>
<linearGradient id="paint6_linear_500_10690" x1="13.6345" y1="3.54568" x2="46.6897" y2="23.5154" gradientUnits="userSpaceOnUse">
<stop stop-color="#E84060"/>
<stop offset="0.523" stop-color="#B3314A"/>
<stop offset="1" stop-color="#742030"/>
</linearGradient>
<linearGradient id="paint7_linear_500_10690" x1="48.0991" y1="18.0543" x2="48.1778" y2="37.3796" gradientUnits="userSpaceOnUse">
<stop stop-color="#75308E"/>
<stop offset="1" stop-color="#8F4094"/>
</linearGradient>
<linearGradient id="paint8_linear_500_10690" x1="13.7445" y1="-7.53942" x2="56.326" y2="17.6758" gradientUnits="userSpaceOnUse">
<stop stop-color="#75308E"/>
<stop offset="1" stop-color="#9A4F9B"/>
</linearGradient>
</defs>
</svg>
