<svg width="261" height="304" viewBox="0 0 261 304" fill="none" xmlns="http://www.w3.org/2000/svg">
<path d="M37.12 260.88V289.56C37.12 294 35.86 297.42 33.34 299.82C30.86 302.22 27.5 303.42 23.26 303.42C18.82 303.42 15.26 302.16 12.58 299.64C9.9 297.12 8.56 293.54 8.56 288.9H18.76C18.76 290.66 19.12 292 19.84 292.92C20.56 293.8 21.6 294.24 22.96 294.24C24.2 294.24 25.16 293.84 25.84 293.04C26.52 292.24 26.86 291.08 26.86 289.56V260.88H37.12ZM77.2075 277.68V286.2H50.8075V277.68H77.2075ZM118.612 260.88V289.56C118.612 294 117.352 297.42 114.832 299.82C112.352 302.22 108.992 303.42 104.752 303.42C100.312 303.42 96.7522 302.16 94.0722 299.64C91.3922 297.12 90.0522 293.54 90.0522 288.9H100.252C100.252 290.66 100.612 292 101.332 292.92C102.052 293.8 103.092 294.24 104.452 294.24C105.692 294.24 106.652 293.84 107.332 293.04C108.012 292.24 108.352 291.08 108.352 289.56V260.88H118.612ZM148.14 303.48C144.86 303.48 141.9 302.78 139.26 301.38C136.66 299.98 134.6 297.98 133.08 295.38C131.6 292.78 130.86 289.74 130.86 286.26C130.86 282.82 131.62 279.8 133.14 277.2C134.66 274.56 136.74 272.54 139.38 271.14C142.02 269.74 144.98 269.04 148.26 269.04C151.54 269.04 154.5 269.74 157.14 271.14C159.78 272.54 161.86 274.56 163.38 277.2C164.9 279.8 165.66 282.82 165.66 286.26C165.66 289.7 164.88 292.74 163.32 295.38C161.8 297.98 159.7 299.98 157.02 301.38C154.38 302.78 151.42 303.48 148.14 303.48ZM148.14 294.6C150.1 294.6 151.76 293.88 153.12 292.44C154.52 291 155.22 288.94 155.22 286.26C155.22 283.58 154.54 281.52 153.18 280.08C151.86 278.64 150.22 277.92 148.26 277.92C146.26 277.92 144.6 278.64 143.28 280.08C141.96 281.48 141.3 283.54 141.3 286.26C141.3 288.94 141.94 291 143.22 292.44C144.54 293.88 146.18 294.6 148.14 294.6ZM187.363 274.26C188.323 272.7 189.703 271.44 191.503 270.48C193.303 269.52 195.363 269.04 197.683 269.04C200.443 269.04 202.943 269.74 205.183 271.14C207.423 272.54 209.183 274.54 210.463 277.14C211.783 279.74 212.443 282.76 212.443 286.2C212.443 289.64 211.783 292.68 210.463 295.32C209.183 297.92 207.423 299.94 205.183 301.38C202.943 302.78 200.443 303.48 197.683 303.48C195.323 303.48 193.263 303.02 191.503 302.1C189.743 301.14 188.363 299.88 187.363 298.32V303H177.103V258.6H187.363V274.26ZM202.003 286.2C202.003 283.64 201.283 281.64 199.843 280.2C198.443 278.72 196.703 277.98 194.623 277.98C192.583 277.98 190.843 278.72 189.403 280.2C188.003 281.68 187.303 283.7 187.303 286.26C187.303 288.82 188.003 290.84 189.403 292.32C190.843 293.8 192.583 294.54 194.623 294.54C196.663 294.54 198.403 293.8 199.843 292.32C201.283 290.8 202.003 288.76 202.003 286.2ZM237.445 303.48C234.525 303.48 231.925 302.98 229.645 301.98C227.365 300.98 225.565 299.62 224.245 297.9C222.925 296.14 222.185 294.18 222.025 292.02H232.165C232.285 293.18 232.825 294.12 233.785 294.84C234.745 295.56 235.925 295.92 237.325 295.92C238.605 295.92 239.585 295.68 240.265 295.2C240.985 294.68 241.345 294.02 241.345 293.22C241.345 292.26 240.845 291.56 239.845 291.12C238.845 290.64 237.225 290.12 234.985 289.56C232.585 289 230.585 288.42 228.985 287.82C227.385 287.18 226.005 286.2 224.845 284.88C223.685 283.52 223.105 281.7 223.105 279.42C223.105 277.5 223.625 275.76 224.665 274.2C225.745 272.6 227.305 271.34 229.345 270.42C231.425 269.5 233.885 269.04 236.725 269.04C240.925 269.04 244.225 270.08 246.625 272.16C249.065 274.24 250.465 277 250.825 280.44H241.345C241.185 279.28 240.665 278.36 239.785 277.68C238.945 277 237.825 276.66 236.425 276.66C235.225 276.66 234.305 276.9 233.665 277.38C233.025 277.82 232.705 278.44 232.705 279.24C232.705 280.2 233.205 280.92 234.205 281.4C235.245 281.88 236.845 282.36 239.005 282.84C241.485 283.48 243.505 284.12 245.065 284.76C246.625 285.36 247.985 286.36 249.145 287.76C250.345 289.12 250.965 290.96 251.005 293.28C251.005 295.24 250.445 297 249.325 298.56C248.245 300.08 246.665 301.28 244.585 302.16C242.545 303.04 240.165 303.48 237.445 303.48Z" fill="#1A1F5F"/>
<path fill-rule="evenodd" clip-rule="evenodd" d="M261 206.813C261 203.948 203.245 201.623 132 201.623C60.7546 201.623 3 203.948 3 206.813C3 209.677 60.7546 212.002 131.998 212.002C203.244 212 261 209.677 261 206.813Z" fill="#1A1F5F" fill-opacity="0.2"/>
<path fill-rule="evenodd" clip-rule="evenodd" d="M86.9547 153.161H83.9429L84.3818 156.035C85.2746 155.11 86.1328 154.151 86.9547 153.161ZM85.2882 161.964L91.8775 205.071H105.383L104.566 169.783C107.401 166.096 109.912 162.027 111.95 157.698C104.542 157.673 97.7413 156.436 92.5803 153.899C90.41 156.822 87.9547 159.513 85.2882 161.964Z" fill="#1A1F5F"/>
<path fill-rule="evenodd" clip-rule="evenodd" d="M175.062 128.366C175.786 127.686 176.496 127.001 177.188 126.308C170.501 104.424 161.692 88.09 147.482 89.069C144.135 94.0276 139.181 97.8158 133.362 99.6835C139.292 98.2165 144.495 94.7792 148.174 90.0601C162.233 90.0511 169.89 106.508 175.062 128.366ZM94.1973 151.602C113.787 158.564 135.305 153.902 153.456 143.999L153.389 143.821H153.388C147.53 128.17 140.732 112.322 133.342 99.6926C130.744 100.526 127.972 100.974 125.097 100.974H103.133H94.7915C104.651 120.548 102.599 137.612 94.6875 150.801L94.1973 151.602ZM94.7915 100.973H78.7082C75.0614 100.982 72.8277 102.256 69.7918 109.961H69.7903L53.8638 150.712H57.4955L70.2865 111.536C72.9107 103.496 75.0795 102.094 78.7655 101.884L94.7915 100.973Z" fill="#1A1F5F"/>
<path fill-rule="evenodd" clip-rule="evenodd" d="M157.009 39.4291L174.65 13.7566L170.105 3.36346L122.921 42.2548L114.82 48.8868L121.502 50.5181L129.985 47.5297C136.849 48.3024 141.096 51.3751 145.411 56.3051L157.009 39.4291Z" fill="#1A1F5F"/>
<path fill-rule="evenodd" clip-rule="evenodd" d="M194.255 125.883L201.872 166.407L212.332 167.311L210.532 120.414L191.338 102.187C190.452 107.914 188.615 113.49 185.713 118.692C185.711 118.692 192.557 124.458 194.255 125.883Z" fill="#1A1F5F"/>
<path fill-rule="evenodd" clip-rule="evenodd" d="M78.708 100.974L71.6617 94.4524C69.87 92.7925 67.5036 93.3121 66.1176 95.0052L56.9282 106.237L64.6803 104.138C65.9065 103.811 66.3061 104.064 66.828 104.966L69.7916 109.962C72.826 102.256 75.0612 100.982 78.708 100.974Z" fill="#1A1F5F"/>
<path d="M149.792 9.56016L113.475 40.1295L112.787 40.7094L111.938 40.9037C80.3489 48.1337 64.0424 22.6148 74.0568 0C77.0475 37.974 104.405 34.841 109.489 33.9268L145.08 3.96595L149.792 9.56016Z" fill="#44C8F5"/>
<path d="M123.735 31.2607C102.785 39.658 93.4519 27.8716 97.7337 13.7159C101.385 32.5862 120.951 24.4841 121.005 24.463L123.735 31.2607Z" fill="#44C8F5"/>
<path d="M75.9209 21.2954C75.9465 21.2818 85.0289 16.7555 84.2416 1.37973C92.0208 9.69422 85.7015 24.463 79.3098 27.7782L75.9209 21.2954Z" fill="#44C8F5"/>
<path d="M130.558 24.2988C118.322 23.0546 113.831 9.11582 120.879 3.29266C119.868 16.0039 131.272 17.0116 131.305 17.0131L130.558 24.2988Z" fill="#44C8F5"/>
<path fill-rule="evenodd" clip-rule="evenodd" d="M177.19 126.31C170.503 104.425 161.693 88.09 147.483 89.0705C144.132 94.0366 139.168 97.8249 133.341 99.6896C141.577 111.788 149.444 127.135 156.357 142.35H156.359C170.739 174 180.998 205.07 181.899 205.07H196.585C189.648 183.195 184.788 151.176 177.19 126.31Z" fill="#1A1F5F"/>
<path fill-rule="evenodd" clip-rule="evenodd" d="M32.6211 205.071H51.0844L64.6731 172.16C75.2048 167.808 85.1951 160.504 91.8522 150.714C100.5 137.995 103.521 121.075 94.7932 100.974H78.7415C75.048 100.974 72.8038 102.249 69.7256 110.128L32.6211 205.071Z" fill="#1A1F5F"/>
<path fill-rule="evenodd" clip-rule="evenodd" d="M147.483 89.0705C147.953 89.0374 148.416 89.0268 148.876 89.0314C162.051 87.9514 171.86 102.654 180.191 122.704C197.698 99.4079 188.887 65.1468 167.738 46.4934C164.497 43.6345 163.076 40.8736 163.076 34.4208C163.076 34.1617 163.084 33.9042 163.097 33.6481L158.013 40.1626L145.411 56.3036C149.558 61.0407 152.074 67.2435 152.074 74.0321C152.074 79.6007 150.382 84.7747 147.483 89.0705Z" fill="#1A1F5F"/>
</svg>
