<svg width="173" height="37" viewBox="0 0 173 37" fill="none" xmlns="http://www.w3.org/2000/svg">
<path d="M74.61 0.0200195H38.46V3.93002H74.61V0.0200195Z" fill="#C01D4A"/>
<path d="M74.61 16.14H38.46V20.05H74.61V16.14Z" fill="#C01D4A"/>
<path d="M74.61 32.26H38.46V36.17H74.61V32.26Z" fill="#C01D4A"/>
<path d="M74.61 8.60999H38.46V11.47H74.61V8.60999Z" fill="#6E7173"/>
<path d="M74.61 24.72H38.46V27.58H74.61V24.72Z" fill="#6E7173"/>
<path d="M21.64 31.61V36.15H0V0H5.73001V31.61H21.64Z" fill="#757877"/>
<path d="M122.04 0V36.14H112.12L97.66 4.54H97.21V36.15H91.48V0H101.45L115.91 31.66H116.31V0H122.04Z" fill="#757877"/>
<path d="M166.56 36.14L163.17 26.17H148.46L145.07 36.14H138.94L152 0H159.93L172.84 36.14H166.56ZM155.59 4.54L150.01 21.54H161.58L156.05 4.54H155.59Z" fill="#757877"/>
</svg>
