<?xml version="1.0" encoding="utf-8"?>
<!-- Generator: Adobe Illustrator 16.0.0, SVG Export Plug-In . SVG Version: 6.00 Build 0)  -->
<!DOCTYPE svg PUBLIC "-//W3C//DTD SVG 1.1//EN" "http://www.w3.org/Graphics/SVG/1.1/DTD/svg11.dtd">
<svg version="1.1" id="ver" xmlns="http://www.w3.org/2000/svg" xmlns:xlink="http://www.w3.org/1999/xlink" x="0px"
	 y="0px" width="74px" height="20px" viewBox="0 0 74 20" enable-background="new 0 0 74 20" xml:space="preserve">
<g>
	
		<linearGradient id="ver_SVGID_1_" gradientUnits="userSpaceOnUse" x1="349.5381" y1="-218.0376" x2="346.4416" y2="-225.7076" gradientTransform="matrix(1 0 0 -1 -338.9902 -220.5996)">
		<stop  offset="0.0161" style="stop-color:#0063BD"/>
		<stop  offset="0.3172" style="stop-color:#00C4E5"/>
		<stop  offset="1" style="stop-color:#73D8DD"/>
	</linearGradient>
	<path fill="url(#ver_SVGID_1_)" d="M16.643,2.548H1.356c-0.705,0-1.275-0.571-1.275-1.273C0.081,0.57,0.651,0,1.356,0h15.287
		c0.705,0,1.275,0.57,1.275,1.274C17.918,1.977,17.348,2.548,16.643,2.548z"/>
	
		<linearGradient id="ver_SVGID_2_" gradientUnits="userSpaceOnUse" x1="350.083" y1="-227.4209" x2="345.329" y2="-239.1967" gradientTransform="matrix(1 0 0 -1 -338.9902 -220.5996)">
		<stop  offset="0.0161" style="stop-color:#0063BD"/>
		<stop  offset="0.3172" style="stop-color:#00C4E5"/>
		<stop  offset="1" style="stop-color:#73D8DD"/>
	</linearGradient>
	<path fill="url(#ver_SVGID_2_)" d="M8.716,19.457c-0.704,0-1.274-0.569-1.274-1.273V7.236c0-0.704,0.57-1.274,1.274-1.274
		c0.704,0,1.274,0.57,1.274,1.274v10.947C9.99,18.888,9.42,19.457,8.716,19.457z"/>
	
		<linearGradient id="ver_SVGID_3_" gradientUnits="userSpaceOnUse" x1="410.084" y1="-223.0781" x2="402.201" y2="-242.6045" gradientTransform="matrix(1 0 0 -1 -338.9902 -220.5996)">
		<stop  offset="0.0161" style="stop-color:#0063BD"/>
		<stop  offset="0.3172" style="stop-color:#00C4E5"/>
		<stop  offset="1" style="stop-color:#73D8DD"/>
	</linearGradient>
	<path fill="url(#ver_SVGID_3_)" d="M56.869,19.347c-0.181,0-0.362-0.038-0.536-0.119c-0.639-0.298-0.914-1.056-0.617-1.692L63.55,0.736
		C63.758,0.289,64.205,0.002,64.697,0c0.002,0,0.004,0,0.006,0c0.492,0,0.938,0.282,1.149,0.725l8.022,16.8
		c0.304,0.635,0.034,1.396-0.603,1.698c-0.635,0.304-1.395,0.034-1.697-0.6L64.718,4.259l-6.693,14.353
		C57.81,19.076,57.351,19.347,56.869,19.347z"/>
	
		<linearGradient id="ver_SVGID_4_" gradientUnits="userSpaceOnUse" x1="113.9531" y1="-224.7231" x2="107.6073" y2="-240.4417" gradientTransform="matrix(-1 0 0 -1 139.7266 -220.5996)">
		<stop  offset="0.0161" style="stop-color:#0063BD"/>
		<stop  offset="0.3172" style="stop-color:#00C4E5"/>
		<stop  offset="1" style="stop-color:#73D8DD"/>
	</linearGradient>
	<path fill="url(#ver_SVGID_4_)" d="M28.674,19.457h-1.913c-3.697,0-6.709-3.129-6.709-6.977V7.294c0-0.703,0.571-1.274,1.274-1.274
		s1.273,0.571,1.273,1.274v5.187c0,2.442,1.867,4.43,4.162,4.43h1.912c2.295,0,4.161-1.986,4.161-4.43V4.239
		c0-0.703,0.569-1.274,1.272-1.274c0.705,0,1.274,0.572,1.274,1.274v13.426c0,0.704-0.569,1.273-1.274,1.273
		c-0.612,0-1.127-0.434-1.246-1.012C31.713,18.885,30.256,19.457,28.674,19.457z"/>
	
		<linearGradient id="ver_SVGID_5_" gradientUnits="userSpaceOnUse" x1="341.4668" y1="-412.3716" x2="334.0608" y2="-430.7162" gradientTransform="matrix(1 0 0 1 -292.292 433.041)">
		<stop  offset="0.0161" style="stop-color:#0063BD"/>
		<stop  offset="0.3172" style="stop-color:#00C4E5"/>
		<stop  offset="1" style="stop-color:#73D8DD"/>
	</linearGradient>
	<path fill="url(#ver_SVGID_5_)" d="M51.927,19.457c-0.703,0-1.275-0.569-1.275-1.273V9.942c0-2.441-1.865-4.429-4.16-4.429h-1.912
		c-2.295,0-4.162,1.987-4.162,4.429v4.578c0,0.704-0.568,1.274-1.273,1.274c-0.703,0-1.273-0.57-1.273-1.274V4.758
		c0-0.704,0.57-1.272,1.273-1.272c0.613,0,1.127,0.434,1.248,1.011c1.147-0.957,2.604-1.53,4.188-1.53h1.912
		c3.699,0,6.71,3.13,6.71,6.978v8.241C53.2,18.888,52.63,19.457,51.927,19.457z"/>
</g>
</svg>
